# xmcd
#
# Track frame offsets:
#	150
#	11974
#	23675
#	34759
#	46331
#	56589
#	67280
#	78369
#	90853
#	100339
#	113516
#	123811
#	134524
#	142681
#	153045
#	166964
#	178956
#	190062
#	201577
#	213363
#	226201
#	237722
#
# Disc length: 3328 seconds
#
# Revision: 1
# Processed by: cddbd v1.5.2PL0 Copyright (c) Steve Scherf et al.
# Submitted via: audiograbber 1.83.01
#
DISCID=290cfe16
DTITLE=Various Artist - Stompin' 33: Sixties R 'n' B - Blues - Soul Crossovers
DYEAR=1900
DGENRE=Blues
TTITLE0=Alton Joseph and The Jokers - Where's The Place
TTITLE1=Amos Milburn - Run Wild
TTITLE2=Thomas Cannaday - Sloppy Twist
TTITLE3=Big Al Downing - Georgia Slop
TTITLE4=Eddie Alexander and The Greats - I'm In Love
TTITLE5=Bobby Tucker - Juking and Jiving Woman
TTITLE6=Piney Brown - Sugar In My Tea
TTITLE7=Bob Rayford - I'm Gonna Pay You Back Baby
TTITLE8=Chris and Stella Towns - Nearer And Dearer
TTITLE9=Walt Jessup - That's All Right
TTITLE10=Little Sonny and His Band - The Mix Up
TTITLE11=Prince Phillip - Another Fool Like Me
TTITLE12=Charles Sheffield - It's Your Voodoo Working
TTITLE13=Larry Ellis - I Love You Pretty Baby
TTITLE14=Byther Smith - Money Tree
TTITLE15=Richard Berry and The Soul Searchers - Go Go Girl
TTITLE16=France Burr - I Say No, No More
TTITLE17=The Nu-Trons - Tension
TTITLE18=Harmonica Fats and Moonshine Willie - Funky Drop
TTITLE19=Walter Rhodes - It's Not What You Do
TTITLE20=Big Maybelle - 96 Tears
TTITLE21=The Clerver's - Please Remind
EXTD=
EXTT0=
EXTT1=
EXTT2=
EXTT3=
EXTT4=
EXTT5=
EXTT6=
EXTT7=
EXTT8=
EXTT9=
EXTT10=
EXTT11=
EXTT12=
EXTT13=
EXTT14=
EXTT15=
EXTT16=
EXTT17=
EXTT18=
EXTT19=
EXTT20=
EXTT21=
PLAYORDER=
